<svg width="1728" height="596" viewBox="0 0 1728 596" fill="none" xmlns="http://www.w3.org/2000/svg">
<g clip-path="url(#clip0_338_205)">
<mask id="mask0_338_205" style="mask-type:luminance" maskUnits="userSpaceOnUse" x="0" y="0" width="1728" height="596">
<path d="M1728 0H0V596H1728V0Z" fill="white"/>
</mask>
<g mask="url(#mask0_338_205)">
<mask id="mask1_338_205" style="mask-type:luminance" maskUnits="userSpaceOnUse" x="0" y="-162" width="1728" height="1728">
<path d="M1728 -162H0V1566H1728V-162Z" fill="white"/>
</mask>
<g mask="url(#mask1_338_205)">
<g opacity="0.03">
<path opacity="0.3" d="M951.919 826.639L951.003 827.28C892.308 868.124 844.605 883.473 831.175 881.721C817.225 880.078 778.241 848.531 737.35 790.132C696.459 731.733 680.109 684.252 683.376 670.639C686.265 657.46 717.176 617.762 775.516 576.656L776.433 576.014C835.127 535.17 882.831 519.821 896.26 521.573C910.211 523.216 949.315 554.934 990.086 613.162C1030.86 671.39 1047.33 719.042 1044.06 732.655C1041.29 746.006 1010.49 785.624 951.919 826.639Z" stroke="#0357EE" stroke-width="4"/>
<path opacity="0.46" d="M999.98 862.84L998.797 863.833C922.978 927.077 859.218 953.942 840.541 953.155C821.161 952.581 763.773 913.917 700.546 838.565C637.319 763.213 609.147 699.909 612.008 680.797C614.403 662.329 652.153 604.016 727.453 540.453L728.636 539.461C804.456 476.217 868.215 449.351 886.892 450.138C906.272 450.712 963.846 489.597 1026.89 564.728C1089.93 639.859 1118.29 703.385 1115.43 722.497C1113.22 741.186 1075.61 799.375 999.98 862.84Z" stroke="#0357EE" stroke-width="4"/>
<path opacity="0.6" d="M1059.78 896.279L1058.35 897.708C966.686 988.836 886.605 1031.15 862.16 1032.26C836.823 1033.72 757.582 989.857 666.545 898.819C575.509 807.782 531.557 728.45 533.11 703.202C534.127 678.846 576.708 598.496 667.656 507.012L669.086 505.583C760.747 414.455 840.828 372.141 865.273 371.035C890.61 369.57 970.118 413.701 1060.89 504.472C1151.66 595.242 1195.88 674.841 1194.32 700.089C1193.57 724.712 1151.17 804.884 1059.78 896.279Z" stroke="#0357EE" stroke-width="4"/>
<path opacity="0.8" d="M1132.54 925.545L1130.89 927.506C1025.33 1052.57 928.98 1114.78 898.267 1118.87C866.466 1123.51 761.662 1076.92 636.768 972.119C511.875 867.32 447.67 772.094 446.841 740.073C445.434 709.238 490.275 603.183 594.9 477.75L596.545 475.789C702.108 350.726 798.456 288.517 829.169 284.426C860.97 279.784 966.14 326.684 1090.67 431.176C1215.2 535.668 1279.77 631.201 1280.6 663.222C1282.37 694.365 1237.73 800.175 1132.54 925.545Z" stroke="#0357EE" stroke-width="4"/>
<path d="M1213.58 944.723L1211.79 947.276C1097.02 1110.17 986.758 1195.84 949.936 1204.06C911.854 1213.07 779.777 1167.67 617.149 1053.79C454.521 939.916 366.526 831.218 362.12 792.465C357.139 755.211 400.269 621.814 513.859 458.572L515.647 456.019C630.415 293.126 740.68 207.45 777.501 199.23C815.583 190.227 948.138 235.963 1110.29 349.504C1272.44 463.044 1360.91 572.076 1365.32 610.829C1370.78 648.417 1327.87 781.495 1213.58 944.723Z" stroke="#0357EE" stroke-width="4"/>
<path opacity="0.7" d="M1309.05 956.6L1307.18 959.85C1186.59 1167.3 1063.3 1281.65 1019.98 1295.37C975.234 1310.16 811.986 1269.54 604.884 1149.96C397.782 1030.39 280.774 909.21 271.414 863.179C261.521 819.007 299.247 654.447 418.38 446.696L420.257 443.446C540.84 235.991 664.136 121.647 707.453 107.926C752.199 93.1329 916.055 134.11 1122.55 253.331C1329.04 372.552 1446.66 494.086 1456.02 540.117C1466.52 584.64 1429.03 748.794 1309.05 956.6Z" stroke="#0357EE" stroke-width="4"/>
<path opacity="0.52" d="M1422.17 959.579L1420.27 963.655C1297.99 1223.89 1162.73 1373.24 1112.44 1394.14C1060.56 1416.46 861.379 1384.99 601.57 1263.83C341.76 1142.68 189.361 1010.21 173.367 956.235C156.931 904.534 184.758 704.15 305.27 443.716L307.17 439.641C429.445 179.409 564.703 30.0517 614.991 9.15492C666.873 -13.1693 866.818 18.6648 1125.87 139.462C1384.91 260.259 1538.08 393.084 1554.07 447.06C1571.27 499.116 1543.68 698.992 1422.17 959.579Z" stroke="#0357EE" stroke-width="4"/>
<path opacity="0.4" d="M1529.37 941.178L1527.6 946.037C1413.62 1256.38 1273.64 1441.01 1218.13 1469.99C1160.93 1500.76 929.576 1484.65 619.775 1371.89C309.974 1259.13 122.092 1122.64 98.3545 1062.42C74.3396 1004.84 86.1212 772.513 198.065 462.118L199.833 457.259C313.817 146.918 453.795 -37.7174 509.311 -66.691C566.51 -97.4595 798.769 -81.0185 1107.66 31.4105C1416.55 143.839 1605.34 280.65 1629.08 340.878C1654.01 398.786 1642.44 630.506 1529.37 941.178Z" stroke="#0357EE" stroke-width="4"/>
<path opacity="0.3" d="M1643.82 907.627L1642.3 913.323C1543.66 1277.18 1402.99 1500.82 1342.8 1539.24C1280.87 1579.88 1016.42 1584.56 653.223 1487.24C290.028 1389.92 62.9915 1253.54 30.0327 1187.49C-2.9783 1124.47 -12.6997 859.382 83.613 495.668L85.1391 489.973C183.775 126.119 324.447 -97.5217 384.64 -135.948C446.567 -176.581 712.083 -180.974 1074.21 -83.9406C1436.34 13.0931 1664.44 149.753 1697.4 215.811C1731.48 279.116 1741.39 543.487 1643.82 907.627Z" stroke="#0357EE" stroke-width="4"/>
<path opacity="0.4" d="M1754.85 855.427L1753.71 861.934C1679.13 1277.76 1543.92 1541.17 1480.46 1589.94C1415.29 1641.35 1120.48 1672.4 705.455 1599.21C290.429 1526.03 23.6107 1395.96 -19.6432 1325.43C-62.6586 1258.3 -99.4141 963.315 -27.4169 547.869L-26.2695 541.362C48.3076 125.532 183.52 -137.871 246.973 -186.648C312.146 -238.056 608.173 -268.886 1021.98 -195.919C1435.79 -122.953 1703.83 7.3385 1747.08 77.8658C1791.31 145.211 1828.21 439.382 1754.85 855.427Z" stroke="#0357EE" stroke-width="4"/>
<path opacity="0.72" d="M1856.85 784.883L1856.21 792.137C1814.28 1255.79 1691.13 1557.94 1626.16 1617.58C1559.54 1680.27 1238.86 1742.67 776.184 1702.19C313.507 1661.71 8.07953 1544.54 -46.1826 1471.27C-99.8565 1401.7 -168.545 1081.4 -129.408 618.415L-128.773 611.161C-86.8406 147.504 36.3041 -154.643 101.282 -214.283C167.895 -276.978 489.934 -339.252 951.253 -298.891C1412.57 -258.531 1719.36 -141.24 1773.62 -67.9695C1828.65 1.71347 1897.42 321.107 1856.85 784.883Z" stroke="#0357EE" stroke-width="4"/>
<path opacity="0.84" d="M1987.54 697.544V705.755C1986 1230.73 1877.36 1582.25 1810.23 1655.64C1741.56 1732.61 1387.45 1834.22 863.719 1834.22C339.986 1834.22 -14.6362 1732.61 -82.7932 1655.64C-149.926 1582.77 -258.567 1229.7 -260.104 705.755V697.544C-258.567 172.568 -149.926 -178.956 -82.7932 -252.34C-14.1237 -329.316 341.523 -430.924 863.719 -430.924C1385.91 -430.924 1742.07 -329.316 1810.23 -252.34C1878.9 -179.469 1987.54 172.568 1987.54 697.544Z" stroke="#0357EE" stroke-width="4"/>
</g>
</g>
</g>
</g>
<defs>
<clipPath id="clip0_338_205">
<rect width="1728" height="596" fill="white"/>
</clipPath>
</defs>
</svg>
