<svg width="916" height="232" viewBox="0 0 916 232" fill="none" xmlns="http://www.w3.org/2000/svg">
<g opacity="0.4">
<path opacity="0.2" d="M843.022 540.033L846.091 539.34C1043.46 494.232 1166.51 423.302 1188.29 391.773C1211.42 359.353 1219.39 216.908 1174.75 19.227C1130.12 -178.454 1061.72 -303.657 1026.86 -322.984C993.687 -342.103 851.58 -353.163 654.498 -309.209L651.429 -308.516C454.063 -263.408 331.012 -192.478 309.229 -160.949C286.048 -128.56 278.2 14.4043 322.717 211.566C367.234 408.728 435.749 534.45 470.598 553.737C503.932 573.366 645.521 584.543 843.004 539.953L843.022 540.033Z" fill="#0349C6"/>
<path opacity="0.4" d="M830.093 481.126L832.736 480.528C1002.72 441.607 1108.69 380.47 1127.44 353.306C1147.35 325.373 1154.17 202.676 1115.65 32.4195C1077.14 -137.837 1018.19 -245.657 988.154 -262.293C959.571 -278.75 837.163 -288.229 667.422 -250.303L664.779 -249.705C494.793 -210.784 388.828 -149.648 370.076 -122.483C350.12 -94.577 343.408 28.5672 381.819 198.377C420.23 368.186 479.288 476.454 509.311 493.055C538.03 509.951 659.991 519.531 830.077 481.057L830.093 481.126Z" fill="#0349C6"/>
<path opacity="0.6" d="M851.986 406.863L854.092 406.108C989.448 357.21 1070.14 296.52 1082.78 272.39C1096.3 247.514 1089.6 146.319 1041.01 10.6987C992.415 -124.921 933.326 -207.346 907.059 -217.968C881.996 -228.589 780.771 -224.102 645.515 -176.043L643.409 -175.289C508.053 -126.39 427.365 -65.7005 414.722 -41.5706C401.168 -16.7122 407.995 84.8397 456.458 220.103C504.921 355.367 564.138 438.148 590.395 448.743C615.613 459.71 716.482 455.35 851.967 406.808L851.986 406.863Z" fill="#0349C6"/>
<path opacity="0.8" d="M848.897 333.479L850.472 332.749C951.681 285.503 1009.81 232.96 1017.9 213.426C1026.61 193.255 1014.37 115.504 967.34 14.0702C920.314 -87.3638 868.887 -146.949 847.842 -153.325C827.729 -159.784 749.801 -149.249 648.61 -102.659L647.036 -101.929C545.827 -54.6833 487.697 -2.14027 479.609 17.3935C470.868 37.554 483.235 115.571 530.138 216.739C577.041 317.906 628.591 377.758 649.626 384.113C669.884 390.829 747.546 380.417 848.878 333.438L848.897 333.479Z" fill="#0349C6"/>
<path d="M806.405 283.258L807.618 282.837C885.574 255.511 932.216 221.119 939.605 207.339C947.499 193.135 944.207 135.017 917.059 56.9116C889.912 -21.1936 856.448 -68.825 841.43 -75.0651C827.104 -81.2978 768.98 -79.2758 691.087 -52.4318L689.874 -52.0104C611.918 -24.685 565.276 9.70708 557.887 23.4874C549.972 37.6809 553.335 96.0043 580.411 173.904C607.487 251.804 641.023 299.641 656.035 305.865C670.449 312.298 728.367 310.347 806.394 283.227L806.405 283.258Z" fill="#0349C6"/>
</g>
</svg>
